<?xml version="1.0" encoding="utf-8"?>
<!-- Generator: Adobe Illustrator 25.2.3, SVG Export Plug-In . SVG Version: 6.00 Build 0)  -->
<svg version="1.1" id="Capa_1" xmlns="http://www.w3.org/2000/svg" xmlns:xlink="http://www.w3.org/1999/xlink" x="0px" y="0px"
	 viewBox="0 0 400 400" style="enable-background:new 0 0 400 400;" xml:space="preserve">
<style type="text/css">
	.st0{fill:#F27073;}
	.st1{opacity:0.29;fill:#FFFFFF;}
	.st2{fill:#3D3D3D;}
	.st3{fill:#748CE9;}
	.st4{fill:#FFFFFF;}
</style>
<image style="overflow:visible;" width="815" height="509" xlink:href="F8584C83.png"  transform="matrix(0.7679 0 0 0.7679 -3989.6863 -446.3132)">
</image>
<image style="overflow:visible;" width="786" height="468" xlink:href="F8584C81.png"  transform="matrix(0.6157 0 0 0.6157 -4485.8145 -452.6002)">
</image>
<path class="st0" d="M-2664.7,113.2c0,113.2-91.8,205.1-205.1,205.1c-4.1,0-8.1-0.1-12.1-0.3c-6.5-0.4-12.9-1.1-19.2-2
	c-98.4-15.1-173.7-100.1-173.7-202.7c0-49.5,17.6-95,46.8-130.4c34.4-41.8,85.1-69.6,142.3-74.1c5.3-0.4,10.6-0.6,16-0.6
	c38.4,0,74.3,10.5,104.9,28.9c48.8,29.1,84.5,78,96.1,135.5C-2666.1,85.7-2664.7,99.3-2664.7,113.2z"/>
<path class="st1" d="M-2956,274.9c-26.3-39.1-160.5-260.7,106.3-363.8c1.3-0.5,0.9-2.5-0.5-2.4c-11.6,0.4-37.1,3.3-69.8,18.8
	c0,0-117.2,47-118.9,185.7c0,0-4.9,99.3,81,163.4C-2956.6,277.5-2955.2,276.1-2956,274.9z"/>
<g>
	<g>
		<path class="st2" d="M-2768,152.9c-4.2,33.8-33.3,56.4-52.7,81.9c-9.9,13.1-17.7,28.1-23.9,43.3c-5.3,12.9-9.2,27.8-3.4,41.1
			c0.7-1.3,1.4-2.5,2.2-3.8c-4.5-0.3-9-0.7-13.5-1.2c-5.1-0.6-7.6-3-11.3-6.4c-5.8-5.2-11.3-10.7-15.9-17
			c-9.5-13-12.6-27.5-9.3-43.3c2.9-14,8.8-27.4,10.7-41.6c0.8-6.5,0.7-13.2-1.2-19.6c-2-6.9-6.1-12.8-9.2-19.2
			c-3.9-8-3.7-15.1-0.7-23.3c2.3-6.3,5.5-12.6,5.4-19.5c-0.1-11.5-9.3-18.5-17.5-25c-4.3-3.3-8.8-6.8-11.6-11.6
			c-2.4-4-2.6-10.2-6.9-12.9c-4-2.5-7.6,0.3-9.8,3.5c-4.9,7.1-11.7-5.5-13.2-9.7c-8.7-24.2,6.1-53-11.5-74.7c-1.5-1.9-4-0.1-4.3,1.8
			c-0.5,4.2-2.7,7.6-6,10.1c-4.7,3.6-9.6,3.7-10.6-3c-1.1-7.3-4.7-13.8-7.4-20.6c-0.2,0.8-0.4,1.6-0.6,2.4
			c26.3-31.7,61.7-55.2,101.4-66.3c10.2-2.9,20.6-5,31.2-6.2c7.1-0.8,9.6,3,12.4,8.9c2.4,5.2,3.8,10.9,3.6,16.7
			c-0.6,13.1-10.1,20-21.9,23.2c-11.6,3.3-23.7,5.3-35.6,7.1c-6.5,1-13,1.9-19.5,2.6c-4.2,0.4-8.5,0.3-12,3c-2,1.6-3.6,4-2.4,6.6
			c0.4,0.9,1.3,1.8,2.3,2.1c0.8,0.2,1.6-0.1,2.3-0.2c2.2-0.1,4,0,6.1,1c12,6,9.2,20.7,4,30.3c-5.3,9.7-13.3,18.2-16.3,29.2
			c-2,7.3-1.8,18,6.6,21.2c4.2,1.5,8.5,0.2,12.8-0.2c5.5-0.4,9.1,2,11.7,6.7c4.3,7.7,5.8,16.2,11.3,23.2c5.6,7.1,13.3,12.4,21.9,15
			c22,6.7,44.2-4.7,66.4-3.3C-2779.1,106.9-2765.8,129.8-2768,152.9c-0.3,3.2,4.7,3.2,5,0c1.8-18.9-6.3-40.2-24.4-48.6
			c-20.4-9.5-43,0.3-64,1.3c-11.8,0.5-23.2-2.1-32.1-10.2c-8.2-7.4-10.1-17.1-14.9-26.5c-4.4-8.6-11-11.1-20.4-9.8
			c-3.6,0.5-7.8,1.2-10.2-2.3c-1.7-2.4-1.8-5.7-1.5-8.5c0.7-7.6,5-14.3,9.1-20.5c6.5-9.9,15.1-21.5,12.5-34.2
			c-2.1-10-11.3-18.2-21.8-16c0.8,0.2,1.6,0.4,2.4,0.6c-0.9-0.9,7.2-2.3,7.7-2.4c3.2-0.4,6.4-0.7,9.6-1.1c6-0.8,11.9-1.6,17.9-2.6
			c11.8-1.9,24.1-3.7,35.4-7.8c8.4-3,15.6-8.1,19-16.7c3.4-8.7,2.3-18.6-1.3-27.1c-3.8-9.1-8.1-14.7-18.5-13.5
			c-10.2,1.2-20.3,3.2-30.2,5.9c-19.1,5.2-37.5,13.2-54.3,23.7c-19.2,11.9-36.4,27-50.8,44.4c-0.5,0.6-1,1.6-0.6,2.4
			c2.8,6.9,6.3,13.5,7.4,20.9c0.6,4.2,2.9,7.9,7.3,8.9c9.8,2.3,18.1-9.3,19.1-17.7c-1.4,0.6-2.8,1.2-4.3,1.8
			c15.7,19.4,3.1,48,9.5,70.3c1.9,6.5,10.7,23.9,19.7,17.3c1.8-1.3,2.5-4.3,4.2-5.3c3.6-2.2,4.7,4.9,5.6,7.1
			c1.9,4.8,5.4,8.7,9.3,12.1c8.5,7.4,22.1,14.2,20.6,27.5c-0.8,7.4-5,14-6.8,21.1c-1.8,6.7-1.1,13,1.6,19.3c3,7.1,7.8,13.3,10,20.8
			c2.2,7.4,1.7,15.1,0.3,22.6c-2.9,14.5-9.1,28.1-10.9,42.9c-2,16.1,3.3,30.7,13.2,43.3c5.1,6.5,11.1,12.3,17.4,17.7
			c3.5,3,5.1,4.3,9.6,4.9c5.2,0.7,10.5,1.2,15.8,1.5c2.1,0.1,2.8-2.2,2.2-3.8c-6.5-14.9,1.5-32.6,7.9-46.1
			c7.3-15.4,15.8-29.4,26.9-42.5c19.1-22.5,42.1-44.4,45.9-75.2C-2762.6,149.7-2767.6,149.7-2768,152.9z"/>
	</g>
</g>
<path class="st2" d="M-2635.7,71.9c-2.7,7.4-12.8,11.1-19.3,14.3c-7.5,3.8-14.3,7.8-19.6,14.3c-9.7,11.9-19.8,36.7-39.4,29.3
	c-12.1-4.6-17-17.6-17.9-29.6c-0.8-11.2,1.3-22.1-3.8-32.5c-2.3-4.8-4.8-9.1-5.7-14.4c-1-5.9-0.6-11.9-0.1-17.8
	c1-10.2,2.8-20.6,1-30.9c-2.2-12.5-11.9-22.7-8.5-36.1c3.1-12.2,12.9-21.7,21.8-29.9c-1,0.1-2,0.3-3,0.4
	c48.7,29.5,83.1,78.3,94.4,134c0.6,3.2,5.5,1.8,4.8-1.3c-11.6-57-47-106.9-96.7-137c-1-0.6-2.2-0.4-3,0.4
	c-8.2,7.7-16.6,16.1-21.1,26.6c-4.6,10.7-2.8,20.3,1.8,30.6c2.9,6.4,5,12.4,5.3,19.4c0.3,6.6-0.6,13.1-1.3,19.7
	c-1.2,11.2-1.9,22.5,3,33c3.2,6.8,5.8,12.2,6,19.9c0.2,6.7-0.4,13.3,0.5,20c1.4,10.8,6,21.3,15.3,27.4c8.1,5.4,18.5,5.8,26.8,0.5
	c7.6-4.8,12.5-12.8,17.4-20.1c3.2-4.7,6.5-9.8,10.9-13.5c4-3.4,8.9-5.8,13.5-8.2c8-4.1,18.2-8.2,21.6-17.3
	C-2629.8,70.2-2634.6,68.9-2635.7,71.9z"/>
<path class="st2" d="M-2833.7,320.8c-4.1,0-8.2-0.1-12.2-0.4c-6.5-0.4-13.1-1.1-19.5-2.1c-48.5-7.4-93-32.1-125.3-69.3
	c-32.6-37.7-50.6-85.9-50.6-135.8c0-48.1,16.8-95,47.4-132c17.6-21.4,38.9-38.7,63.4-51.7c25.1-13.3,52.3-21.1,80.7-23.3
	c5.3-0.4,10.8-0.6,16.2-0.6c37.5,0,74.2,10.1,106.2,29.2c50.3,30,85.8,80,97.2,137.2c2.7,13.5,4.1,27.3,4.1,41.2
	C-2626.2,227.7-2719.3,320.8-2833.7,320.8z M-2833.7-89.3c-5.3,0-10.6,0.2-15.8,0.6c-27.7,2.1-54.2,9.8-78.7,22.7
	c-23.8,12.6-44.6,29.6-61.8,50.4c-29.8,36.1-46.2,81.9-46.2,128.8c0,48.7,17.5,95.8,49.4,132.5c31.5,36.4,74.9,60.4,122.3,67.7
	c6.3,1,12.6,1.6,19,2c3.9,0.2,8,0.3,11.9,0.3c111.7,0,202.6-90.9,202.6-202.6c0-13.5-1.3-27-4-40.2
	c-11.2-55.8-45.8-104.6-94.9-133.9C-2761.3-79.5-2797.2-89.3-2833.7-89.3z"/>
<g>
	<path class="st3" d="M355.5,200c0,94.8-76.8,171.6-171.6,171.6c-3.4,0-6.8-0.1-10.1-0.3c-5.4-0.3-10.8-0.9-16.1-1.7
		C75.3,357,12.3,285.9,12.3,200c0-41.5,14.7-79.5,39.2-109.1c28.8-34.9,71.2-58.3,119.1-62c4.4-0.3,8.9-0.5,13.4-0.5
		c32.1,0,62.1,8.8,87.8,24.2c40.9,24.4,70.7,65.3,80.4,113.4C354.4,177,355.5,188.3,355.5,200z"/>
	<path class="st1" d="M111.7,335.4c-22.1-32.7-134.4-218.2,89-304.5c1.1-0.4,0.8-2.1-0.4-2c-9.7,0.4-31,2.8-58.4,15.7
		c0,0-98.1,39.4-99.5,155.4c0,0-4.1,83.1,67.8,136.8C111.2,337.5,112.4,336.3,111.7,335.4z"/>
	<g>
		<g>
			<path class="st4" d="M269.1,233.2c-3.5,28.3-27.9,47.2-44.1,68.6c-8.3,11-14.8,23.5-20,36.2c-4.4,10.8-7.7,23.3-2.8,34.4
				c0.6-1,1.2-2.1,1.8-3.1c-3.8-0.2-7.6-0.6-11.3-1c-4.3-0.5-6.4-2.5-9.5-5.3c-4.8-4.3-9.5-9-13.3-14.2c-7.9-10.9-10.5-23-7.8-36.2
				c2.4-11.8,7.4-22.9,8.9-34.8c0.7-5.5,0.6-11.1-1-16.4c-1.7-5.8-5.1-10.7-7.7-16.1c-3.2-6.7-3.1-12.6-0.5-19.5
				c2-5.3,4.6-10.6,4.5-16.4c0-9.6-7.8-15.5-14.7-20.9c-3.6-2.8-7.4-5.7-9.7-9.7c-2-3.4-2.2-8.5-5.8-10.8c-3.3-2.1-6.3,0.2-8.2,3
				c-4.1,5.9-9.8-4.6-11.1-8.1c-7.3-20.2,5.1-44.3-9.6-62.6c-1.3-1.6-3.4-0.1-3.6,1.5c-0.4,3.5-2.2,6.4-5,8.5c-3.9,3-8,3.1-8.8-2.5
				c-0.9-6.1-3.9-11.6-6.2-17.2c-0.2,0.7-0.4,1.4-0.5,2c22-26.5,51.6-46.2,84.9-55.5c8.5-2.4,17.3-4.2,26.1-5.2
				c5.9-0.7,8.1,2.5,10.4,7.5c2,4.4,3.2,9.2,3,14c-0.5,11-8.5,16.7-18.3,19.5c-9.7,2.7-19.8,4.4-29.8,5.9
				c-5.4,0.8-10.9,1.6-16.3,2.1c-3.5,0.4-7.1,0.3-10,2.5c-1.7,1.3-3,3.3-2,5.5c0.4,0.8,1.1,1.5,1.9,1.8c0.7,0.2,1.3-0.1,2-0.1
				c1.9-0.1,3.4,0,5.1,0.8c10.1,5,7.7,17.3,3.3,25.3c-4.5,8.1-11.2,15.2-13.6,24.4c-1.6,6.1-1.5,15.1,5.6,17.7
				c3.5,1.3,7.1,0.2,10.7-0.1c4.6-0.4,7.6,1.7,9.8,5.6c3.6,6.4,4.8,13.5,9.5,19.4c4.7,5.9,11.1,10.4,18.3,12.6
				c18.4,5.6,37-3.9,55.6-2.7C259.8,194.7,270.9,213.9,269.1,233.2c-0.3,2.7,3.9,2.7,4.2,0c1.5-15.8-5.3-33.6-20.4-40.6
				c-17.1-7.9-36,0.3-53.6,1.1c-9.8,0.5-19.4-1.8-26.9-8.5c-6.9-6.2-8.5-14.3-12.5-22.2c-3.7-7.2-9.2-9.3-17-8.2
				c-3,0.4-6.5,1-8.5-1.9c-1.4-2-1.5-4.8-1.3-7.2c0.6-6.3,4.2-12,7.6-17.2c5.5-8.3,12.7-18,10.5-28.6c-1.7-8.4-9.5-15.2-18.2-13.4
				c0.7,0.2,1.4,0.4,2,0.5c-0.7-0.8,6.1-1.9,6.5-2c2.7-0.3,5.4-0.6,8-0.9c5-0.6,10-1.4,15-2.2c9.8-1.6,20.2-3.1,29.6-6.5
				c7-2.5,13.1-6.8,15.9-13.9c2.9-7.3,1.9-15.6-1.1-22.7c-3.2-7.6-6.8-12.3-15.5-11.3c-8.5,1-17,2.6-25.3,4.9
				c-16,4.4-31.4,11.1-45.4,19.8c-16.1,10-30.4,22.6-42.5,37.1c-0.4,0.5-0.8,1.3-0.5,2c2.3,5.8,5.3,11.3,6.2,17.5
				c0.5,3.5,2.4,6.6,6.1,7.4c8.2,1.9,15.1-7.8,16-14.8c-1.2,0.5-2.4,1-3.6,1.5c13.2,16.3,2.6,40.2,7.9,58.9c1.6,5.5,9,20,16.5,14.5
				c1.5-1.1,2.1-3.6,3.5-4.4c3-1.9,4,4.1,4.7,6c1.6,4,4.5,7.3,7.8,10.1c7.1,6.2,18.5,11.9,17.3,23c-0.7,6.2-4.1,11.7-5.7,17.7
				c-1.5,5.6-0.9,10.9,1.3,16.1c2.5,5.9,6.5,11.2,8.4,17.4c1.8,6.2,1.5,12.6,0.2,18.9c-2.4,12.1-7.6,23.6-9.1,35.9
				c-1.6,13.5,2.8,25.7,11.1,36.2c4.3,5.5,9.3,10.3,14.6,14.8c2.9,2.5,4.2,3.6,8,4.1c4.4,0.6,8.8,1,13.2,1.3
				c1.8,0.1,2.4-1.8,1.8-3.1c-5.4-12.5,1.2-27.3,6.6-38.6c6.1-12.9,13.3-24.6,22.5-35.5c16-18.8,35.2-37.2,38.4-63
				C273.6,230.5,269.4,230.5,269.1,233.2z"/>
		</g>
	</g>
	<path class="st4" d="M379.7,165.4c-2.3,6.2-10.7,9.3-16.1,12c-6.2,3.2-11.9,6.5-16.4,12c-8.1,10-16.6,30.7-33,24.5
		c-10.1-3.8-14.3-14.7-15-24.7c-0.7-9.3,1.1-18.5-3.1-27.2c-1.9-4-4-7.6-4.8-12c-0.9-4.9-0.5-10-0.1-14.9c0.8-8.6,2.4-17.2,0.9-25.8
		c-1.8-10.5-9.9-19-7.1-30.2c2.6-10.2,10.8-18.2,18.2-25.1c-0.8,0.1-1.7,0.2-2.5,0.3c40.8,24.7,69.5,65.5,79,112.2
		c0.5,2.6,4.6,1.5,4-1.1c-9.7-47.7-39.3-89.5-81-114.7c-0.8-0.5-1.9-0.3-2.5,0.3c-6.9,6.4-13.9,13.5-17.7,22.2
		c-3.8,8.9-2.4,17,1.5,25.6c2.4,5.4,4.2,10.4,4.5,16.3c0.2,5.5-0.5,11-1.1,16.5c-1,9.4-1.6,18.8,2.5,27.6c2.7,5.7,4.9,10.2,5,16.6
		c0.2,5.6-0.3,11.2,0.4,16.8c1.2,9,5,17.8,12.8,23c6.8,4.5,15.5,4.9,22.5,0.4c6.3-4,10.4-10.7,14.6-16.8c2.7-4,5.5-8.2,9.2-11.3
		c3.4-2.9,7.4-4.8,11.3-6.8c6.7-3.4,15.2-6.9,18.1-14.5C384.7,164,380.7,162.9,379.7,165.4z"/>
	<path class="st4" d="M214,373.7c-3.4,0-6.9-0.1-10.2-0.3c-5.4-0.3-10.9-0.9-16.3-1.7c-40.6-6.2-77.8-26.8-104.9-58
		C55.3,282.1,40.3,241.8,40.3,200c0-40.3,14.1-79.5,39.6-110.5c14.7-17.9,32.6-32.4,53-43.2c21-11.1,43.7-17.7,67.5-19.5
		c4.5-0.3,9-0.5,13.5-0.5c31.4,0,62.1,8.5,88.9,24.5c42.1,25.1,71.8,67,81.4,114.8c2.3,11.3,3.4,22.9,3.4,34.5
		C387.7,295.8,309.8,373.7,214,373.7z M214,30.5c-4.4,0-8.9,0.2-13.2,0.5c-23.2,1.8-45.4,8.2-65.9,19c-20,10.5-37.4,24.7-51.8,42.2
		C58.2,122.4,44.5,160.7,44.5,200c0,40.8,14.7,80.2,41.3,110.9c26.4,30.5,62.7,50.6,102.3,56.6c5.2,0.8,10.6,1.4,15.9,1.7
		c3.3,0.2,6.7,0.3,10,0.3c93.5,0,169.5-76.1,169.5-169.5c0-11.3-1.1-22.6-3.3-33.6c-9.4-46.7-38.3-87.5-79.4-112.1
		C274.6,38.7,244.6,30.5,214,30.5z"/>
</g>
<rect x="-2989.8" y="-304.6" style="fill:none;" width="312" height="64"/>
<text transform="matrix(1 0 0 1 -2989.769 -255.6489)" style="font-family:'Gotham-Book'; font-size:69px;">ICONO 1</text>
<rect x="-1940" y="-304.6" style="fill:none;" width="312" height="64"/>
<text transform="matrix(1 0 0 1 -1939.979 -255.6489)" style="font-family:'Gotham-Book'; font-size:69px;">ICONO 2</text>
</svg>
