<?xml version="1.0" encoding="utf-8"?>
<!-- Generator: Adobe Illustrator 24.1.2, SVG Export Plug-In . SVG Version: 6.00 Build 0)  -->
<svg version="1.1" id="Capa_1" xmlns="http://www.w3.org/2000/svg" xmlns:xlink="http://www.w3.org/1999/xlink" x="0px" y="0px"
	 viewBox="0 0 950 160" style="enable-background:new 0 0 950 160;" xml:space="preserve">
<style type="text/css">
	.st0{fill:#F4E0D7;}
	.st1{fill:#FFE996;}
</style>
<g id="Capa_2_1_">
	<g id="Capa_1-2">
		<path class="st0" d="M10,129.5c0-22.6,15.4-38.8,34.2-38.8c7.3-0.1,14,3.9,17.4,10.4L51,109.2c-2.3-3.5-4.7-5.1-7.6-5.1
			c-9.2,0-17.4,10.7-17.4,24.4c0,9.2,3.5,14.4,12.1,14.4c3.3,0,6.8-2,9.8-4.5l6.4,10c-5.3,5-12.2,7.8-19.5,8
			C20,156.5,10,146.7,10,129.5z"/>
		<path class="st0" d="M75.8,91.9h15.6l-10.2,50.3h23l-2.5,13.1H63.1L75.8,91.9z"/>
		<path class="st0" d="M125.9,91.9h15.6l-12.7,63.4h-15.6L125.9,91.9z"/>
		<path class="st0" d="M156.2,91.9h16.2l4.1,27.3l1.5,10.7h0.4l5.6-10.7l14.9-27.3h16.2l-12.7,63.4h-14.6l4.5-21.1
			c1.7-7.5,3.8-15,6.2-22.3H198l-7.9,14.8l-13.5,23h-5.9l-4.1-23l-2-14.8h-0.3c-0.5,6.4-1.2,15.8-2.4,22.2l-4.3,21.1h-14.2
			L156.2,91.9z"/>
		<path class="st0" d="M241.3,91.9h18.7l6,63.4h-16.4l-1-33.6c-0.2-6.1-0.4-11.7-0.4-18.2h-0.4c-2.5,6.3-4.7,12.1-7.4,18.2
			l-15.1,33.5h-17.2L241.3,91.9z M228.1,129.2h29.5l-2.7,11.7h-29.5L228.1,129.2z"/>
		<path class="st0" d="M287.3,104.9h-16l2.6-13h47.6l-2.5,13h-16l-10,50.4h-15.6L287.3,104.9z"/>
		<path class="st0" d="M331.5,91.9h38.6l-2.5,13h-23.3l-2.1,11.1h19.8l-2.5,13.1h-19.7l-2.7,13.1h24l-2.5,13.1h-39.6L331.5,91.9z"/>
		<path class="st0" d="M393.5,129.5c0-22.6,15.4-38.8,34.2-38.8c7.3-0.1,14,3.9,17.4,10.4l-10.5,8.2c-2.3-3.5-4.7-5.1-7.6-5.1
			c-9.2,0-17.4,10.7-17.4,24.4c0,9.2,3.5,14.4,12.1,14.4c3.3,0,6.8-2,9.8-4.5l6.4,10c-5.3,5-12.2,7.8-19.5,8
			C403.5,156.5,393.5,146.7,393.5,129.5z"/>
		<path class="st0" d="M459.3,91.9h15.6l-4.9,23.8H489l4.7-23.8h15.6l-12.7,63.4H481l5.3-26h-18.9l-5.1,26h-15.6L459.3,91.9z"/>
		<path class="st0" d="M535.6,91.9h18.7l6,63.4H544l-1-33.6c-0.2-6.1-0.4-11.7-0.4-18.2h-0.3c-2.5,6.3-4.7,12.1-7.4,18.2l-15.2,33.6
			h-17.2L535.6,91.9z M522.4,129.2h29.5l-2.7,11.7h-29.5L522.4,129.2z"/>
		<path class="st0" d="M579,91.9h15l8.8,30l3.1,14.2h0.4c0.6-6.8,1-16.4,2.5-24l4.1-20.3h14.8l-12.7,63.4h-15l-8.8-30.1l-3-14.3
			h-0.4c-0.6,7.2-1.2,16.2-2.7,23.8l-4.1,20.5h-14.8L579,91.9z"/>
		<path class="st0" d="M632.8,129.5c0-22.6,15.4-38.8,35.1-38.8c8.4,0,14.6,3.7,18.3,10.4l-10.5,8.2c-2.3-3.5-4.9-5.1-8.6-5.1
			c-10.2,0-18.3,10.7-18.3,24.4c0,9.2,3.5,14.6,12.5,14.6c1.9,0,3.8-0.6,5.5-1.6l2.3-10.6h-9.4l2.3-12.7h23l-6,31.4
			c-6,4.3-13.1,6.7-20.5,6.6C642.8,156.5,632.8,146.7,632.8,129.5z"/>
		<path class="st0" d="M703.1,91.9h38.7l-2.5,13H716l-2.1,11.1h19.7l-2.5,13.1h-19.7l-2.7,13.1h24l-2.5,13.1h-39.6L703.1,91.9z"/>
		<path class="st0" d="M742.5,148.3c0-5.3,4.3-10.9,10.7-10.9c4.7,0,7.8,3.5,7.8,8.2c0,6-4.8,10.9-10.8,10.9
			C745.7,156.5,742.5,153.1,742.5,148.3z"/>
		<path class="st1" d="M10.2,6.6h8.2v39.5h19.3v6.9H10.2V6.6z"/>
		<path class="st1" d="M45.9,6.6h27.9v6.9H54.1v11.9h16.7v6.9H54.1v13.7h20.4v6.9H45.9V6.6z"/>
		<path class="st1" d="M93.4,13.6H80V6.6h35v6.9h-13.4v39.5h-8.2V13.6z"/>
		<path class="st1" d="M121.6,21.7c3.9-2.2,5.9-4.8,5.9-9L127,7.2l3.2,4.2c-0.9,0.9-2.1,1.3-3.3,1.4c-2.4,0.1-4.5-1.7-4.6-4.1
			c0-0.1,0-0.2,0-0.3c0-3,1.9-4.9,4.6-4.9c3.6,0,5.6,2.9,5.6,7.9c0,6.2-3,10.8-8.9,13.9L121.6,21.7z"/>
		<path class="st1" d="M139.1,47.1l4.8-5.7c3.2,3.2,7.5,5.1,12.1,5.3c5.2,0,8.1-2.4,8.1-6c0-3.8-3-5-7.2-6.8l-6.4-2.8
			c-4.6-1.9-9.4-5.5-9.4-12.3c0-7.4,6.5-13.1,15.6-13.1c5.4,0,10.5,2.1,14.3,5.9l-4.2,5.2c-2.7-2.5-6.3-4-10.1-4
			c-4.4,0-7.3,2.1-7.3,5.5c0,3.7,3.5,5,7.4,6.6l6.3,2.6c5.5,2.3,9.4,5.8,9.4,12.5c0,7.5-6.2,13.8-16.7,13.8
			C149.6,53.9,143.6,51.5,139.1,47.1z"/>
		<path class="st1" d="M204.6,13.6h-13.4V6.6h35v6.9h-13.4v39.5h-8.2L204.6,13.6z"/>
		<path class="st1" d="M233.7,32.7V6.6h8.2v26.7c0,10.1,3.8,13.4,9.4,13.4c5.6,0,9.6-3.3,9.6-13.4V6.6h7.9v26.1
			c0,15.3-6.8,21.2-17.5,21.2S233.7,48,233.7,32.7z"/>
		<path class="st1" d="M280.4,6.6h15.6c9.6,0,17.1,3.4,17.1,13.8c0,10-7.4,14.5-17.1,14.5h-7.4v18.2h-8.2V6.6z M295.2,28.3
			c6.4,0,9.8-2.6,9.8-7.9s-3.5-7.2-9.8-7.2h-6.6v15.1H295.2z M294.5,32.7l6-4.9L315,53.1h-9.3L294.5,32.7z"/>
		<path class="st1" d="M322.5,6.6h8.5l14.4,26.1l4.8,9.9h0.3c-0.4-4.8-1-10.7-1-15.8V6.6h7.8v46.4h-8.5l-14.4-26.2l-4.8-9.9h-0.3
			c0.4,4.9,1,10.5,1,15.7v20.4h-7.8V6.6z"/>
		<path class="st1" d="M380.8,29.7c0-15,8.4-23.9,20.5-23.9s20.5,8.9,20.5,23.9s-8.4,24.2-20.5,24.2S380.8,44.7,380.8,29.7z
			 M413.3,29.7c0-10.4-4.7-16.7-12-16.7s-12,6.3-12,16.7s4.7,17.1,12,17.1S413.3,40.1,413.3,29.7L413.3,29.7z"/>
		<path class="st1" d="M431.1,6.6h28v6.9h-19.7v13.2h16.9v6.9h-16.9v19.4h-8.2L431.1,6.6z"/>
		<path class="st1" d="M467.3,6.6h28.1v6.9h-19.8v13.2h16.8v6.9h-16.8v19.4h-8.2V6.6z"/>
	</g>
</g>
</svg>
