<?xml version="1.0" encoding="utf-8"?>
<!-- Generator: Adobe Illustrator 24.1.2, SVG Export Plug-In . SVG Version: 6.00 Build 0)  -->
<svg version="1.1" id="Capa_1" xmlns="http://www.w3.org/2000/svg" xmlns:xlink="http://www.w3.org/1999/xlink" x="0px" y="0px"
	 viewBox="0 0 184.1 298.1" style="enable-background:new 0 0 184.1 298.1;" xml:space="preserve">
<style type="text/css">
	.st0{fill:#FFFFFF;}
	.st1{fill:#F26167;stroke:#F26167;stroke-width:0.75;stroke-miterlimit:10;}
</style>
<g id="Capa_2_1_">
	<g id="Capa_1-2">
		<path class="st0" d="M182.7,73c-0.6-1.2-1.5-2.2-2.6-3c-1.1-0.8-2.3-1.4-3.6-1.9c-1.3-0.4-2.6-0.7-3.9-0.7h-29.1c-3.9,0-7,3.1-7,7
			v13.7c0,0.2,0,0.3,0.1,0.4c-2.7-3.1-5.6-6.1-8.7-8.8c-3.3-3-7-5.5-10.9-7.6c-4.2-2.2-8.6-3.9-13.1-5.1c-5.2-1.3-10.5-1.9-15.8-1.9
			c-12-0.1-23.9,2.1-35.1,6.7C42.5,76.1,33,82.4,25,90.3c-7.9,7.8-14.2,17.1-18.4,27.4c-4.5,10.7-6.7,22.2-6.6,33.8
			c-0.1,11.5,2.1,22.8,6.6,33.4c4.2,9.9,10.5,18.8,18.4,26.1c8.1,7.4,17.6,13.2,27.9,16.9c11.2,4.1,23.1,6.2,35.1,6.1
			c5.1,0.1,10.1-0.6,15-1.9c4.1-1.2,7.9-2.8,11.6-5c3.4-2,6.5-4.4,9.3-7.1c2.8-2.6,5.6-5.3,8.3-8v1.8c0,0.3,0,0.7,0.1,1
			c0,0.3,0.1,0.7,0.1,1v1.8c0,2.3-0.1,4.5-0.3,6.6c-0.2,2-0.6,3.9-1.3,5.8c-1.1,3.9-3.3,7.5-6.3,10.3c-3.1,3-6.7,5.6-10.5,7.6
			c-4.1,2.1-8.4,3.7-12.8,4.7c-4.3,1-8.7,1.5-13.2,1.5c-2.5,0-5.3-0.1-8.5-0.3c-3.2-0.2-6.4-0.7-9.5-1.4c-3.2-0.7-6.4-1.7-9.4-3
			c-3-1.2-5.7-2.9-8.1-5.1c-3.1-2.1-5.7-3.2-7.8-3.2c-1.3,0-2.5,0.3-3.6,1c-1.3,0.8-2.6,1.9-3.7,3l-13.3,17.2c-1.6,2-2.5,4.4-2.7,7
			c0,1.7,0.5,3.4,1.5,4.8c1,1.4,2.2,2.7,3.6,3.6c4.4,3.6,9.1,6.6,14.2,9c5.4,2.6,11,4.7,16.7,6.4c5.7,1.7,11.5,2.9,17.3,3.8
			c5.4,0.8,10.8,1.2,16.3,1.3c12.4,0.1,24.7-1.9,36.5-5.8c10.8-3.6,20.8-9.4,29.4-16.9c8.4-7.6,15.1-16.8,19.6-27.2
			c4.8-10.7,7.2-23,7.2-36.7V77.3C183.7,75.8,183.4,74.3,182.7,73z M135.3,153.9c-0.2,5.4-1.6,10.6-4,15.4
			c-2.3,4.7-5.5,8.9-9.5,12.4c-4,3.6-8.7,6.4-13.8,8.3c-5.4,2-11.2,3-16.9,3c-5.7,0.1-11.3-1-16.6-3.2c-9.8-4-17.4-11.9-21.1-21.8
			c-1.9-5.3-2.9-10.8-2.9-16.4c0-5.5,1-10.9,2.9-16.1c3.7-10,11.3-18.1,21.1-22.4c5.2-2.3,10.9-3.4,16.6-3.4
			c11.4,0,22.4,4.3,30.7,12c3.9,3.6,7.1,7.9,9.5,12.6c2.4,4.7,3.7,9.9,4,15.2L135.3,153.9z"/>
		<circle class="st1" cx="157.6" cy="26.5" r="26.1"/>
	</g>
</g>
</svg>
