<svg id="FRONT_FINAL" data-name="FRONT FINAL" xmlns="http://www.w3.org/2000/svg" viewBox="0 0 190.77 186.21"><defs><style>.cls-1{fill:#f26167;}</style></defs><title>CASA VIVA_FRONT FINAL_PW</title><path class="cls-1" d="M72.31,169.29a12.39,12.39,0,0,0-1.57-.23c-7.32-.15-14.61-.6-21.56-3.14C36,161.09,27.83,151.67,24.37,138.11a71.07,71.07,0,0,1-1.84-17.19c-.12-15.34-.28-30.69-.17-46,.05-7.72.05-15.5,2.09-23.06,4.46-16.52,15.28-26.26,32-29.35,4.64-.86,9.44-.88,14.17-1.29.47-.05.93-.15,1.4-.23h48.86c2.91.19,5.83.37,8.74.58,8.64.65,16.82,2.71,23.95,7.89,8.73,6.34,13.65,15,15.57,25.55,1.45,8,1.39,16,1.45,24q.16,18.31-.06,36.62c-.09,7-.18,13.91-1.61,20.77-3.54,16.88-15.48,28.59-32.45,31.38-4.71.77-9.54.86-14.32,1.27-.52,0-1,.16-1.57.24ZM35.55,95h.21c0,6.17-.15,12.36.05,18.53a173,173,0,0,0,1.28,19.33c1.36,9.3,6.43,16.17,15.28,19.9a38.26,38.26,0,0,0,13.78,2.68q11.46.39,22.93.47c8.58.06,17.16.1,25.74-.13a150.13,150.13,0,0,0,19.33-1.28c10.91-1.7,18.19-8.08,21.06-18.9a46.49,46.49,0,0,0,1.5-10.3c.32-9.4.39-18.81.47-28.22.06-6.67.12-13.34-.1-20a180.72,180.72,0,0,0-1.3-19.63c-1.33-9.24-6.35-16.09-15.13-19.84a38.54,38.54,0,0,0-14.06-2.75c-7.69-.26-15.38-.4-23.08-.46-8.53,0-17.06-.1-25.59.13a163.56,163.56,0,0,0-19.18,1.27c-9.24,1.35-16.1,6.37-19.85,15.14a39,39,0,0,0-2.76,14.36C35.86,75.17,35.74,85.07,35.55,95Z"/><path class="cls-1" d="M96.47,133.24a38.13,38.13,0,1,1,38.11-38.18A38.12,38.12,0,0,1,96.47,133.24Zm-.08-13.46c13.45,0,24.69-11,24.71-24.2,0-13.89-10.86-25.1-24.39-25.11a24.66,24.66,0,1,0-.32,49.31Z"/><path class="cls-1" d="M145,55.65A9,9,0,0,1,136,64.52a9,9,0,0,1-9-9,9,9,0,1,1,17.9.13Z"/></svg>