<svg xmlns="http://www.w3.org/2000/svg" width="585.084" height="214.392" viewBox="0 0 585.084 214.392"><g transform="translate(-188.878 -273.279)"><circle cx="18.641" cy="18.641" r="18.641" transform="translate(563.134 274.279)" fill="#647ced"/><path d="M319.287,327.558a6.05,6.05,0,0,0-1.95-2.322,5.034,5.034,0,0,0-2.526-1.291,13.533,13.533,0,0,0-2.544-.275H292.683a5.572,5.572,0,0,0-5.477,5.661v9.686l-.05.155a42.92,42.92,0,0,0-6.139-6.727,37.835,37.835,0,0,0-7.85-5.351,45.066,45.066,0,0,0-9.53-3.527,46.7,46.7,0,0,0-11.258-1.291,65.7,65.7,0,0,0-24.824,4.68,62.762,62.762,0,0,0-20.161,12.922A61.168,61.168,0,0,0,193.846,359.2a58.245,58.245,0,0,0-4.968,24.02,59.525,59.525,0,0,0,8.631,31.038,61.154,61.154,0,0,0,9.885,12.3,62.1,62.1,0,0,0,12.8,9.481,64.852,64.852,0,0,0,15.193,6.09,67.244,67.244,0,0,0,16.99,2.134,39.339,39.339,0,0,0,9.6-1.17,47.368,47.368,0,0,0,16.074-7.381,58.8,58.8,0,0,0,5.986-4.921l.644,2.133c.509,1.687,1.085,3.338,1.746,4.973a8.09,8.09,0,0,0,1.306,2.271,5.19,5.19,0,0,0,2.052,1.445,8.852,8.852,0,0,0,3.306.516h19.177a13.706,13.706,0,0,0,2.544-.292,4.9,4.9,0,0,0,2.526-1.29,4.709,4.709,0,0,0,1.95-2.289,7.857,7.857,0,0,0,.577-3.011V330.535A7.221,7.221,0,0,0,319.287,327.558ZM280.424,394.7a27.867,27.867,0,0,1-6.477,9.239,30.981,30.981,0,0,1-9.733,6.177A31.658,31.658,0,0,1,252.09,412.4a28.336,28.336,0,0,1-11.547-2.288,26.533,26.533,0,0,1-14.6-15.416,33.516,33.516,0,0,1,0-22.815,28.936,28.936,0,0,1,5.7-9.48,26.848,26.848,0,0,1,8.9-6.452,27.537,27.537,0,0,1,11.547-2.375,30.854,30.854,0,0,1,21.857,8.827,30.162,30.162,0,0,1,6.477,9.48,28.975,28.975,0,0,1,0,22.815Z" fill="#f26167"/><path d="M456.394,373.269V434.9a7.818,7.818,0,0,1-1.662,5.409c-1.1,1.238-2.848,1.848-5.256,1.848H426.365c-2.883,0-4.849-.458-5.918-1.373-1.068-.9-1.594-2.679-1.594-5.307V374.2a15.942,15.942,0,0,0-1.95-7.664,22.7,22.7,0,0,0-5.154-6.392,25.2,25.2,0,0,0-7.257-4.375,22.3,22.3,0,0,0-8.258-1.611,19.775,19.775,0,0,0-7.359,1.509,25.156,25.156,0,0,0-12.208,10.5,17.546,17.546,0,0,0-2.459,7.851v61.177a8.64,8.64,0,0,1-.644,3.205,5.144,5.144,0,0,1-1.95,2.442,9.232,9.232,0,0,1-2.459,1.034,11.152,11.152,0,0,1-2.645.288H343.891q-4.324,0-6.206-1.983a7.277,7.277,0,0,1-1.916-5.274V329.675a6.5,6.5,0,0,1,.864-3.29,5.983,5.983,0,0,1,2.34-2.34l-.593.272a6.393,6.393,0,0,1,2.747-1.306,14.626,14.626,0,0,1,2.764-.288H359a7.984,7.984,0,0,1,2.29.305,7.63,7.63,0,0,1,7.274,7.63l.347,6.455L368.9,338.3a22.716,22.716,0,0,1,4.866-6,36.449,36.449,0,0,1,8.309-5.629,54.119,54.119,0,0,1,11.462-4.189,59.727,59.727,0,0,1,14.5-1.627,48.3,48.3,0,0,1,20.382,4.12,45.077,45.077,0,0,1,15.209,11.259,49.036,49.036,0,0,1,9.513,16.668A62.671,62.671,0,0,1,456.394,373.269Z" fill="#f26167"/><path d="M743.765,377.221c0,3.256-.05,5.935-.152,8a8.668,8.668,0,0,1-1.543,4.935,7.754,7.754,0,0,1-4.663,2.543,48,48,0,0,1-9.563.712H672.007V376.475a9.8,9.8,0,0,1,9.8-9.8h26.333a57.027,57.027,0,0,0-4.561-6.765,30,30,0,0,0-5.613-5.46,24.464,24.464,0,0,0-7.206-3.679,31,31,0,0,0-9.445-1.306,19.949,19.949,0,0,0-7.562,1.458,29.592,29.592,0,0,0-9.173,5.867c-11.387,10.35-10.144,27.658-8.546,36.579a18.794,18.794,0,0,0,.728,2.893c4.544,12.992,15.85,16.618,21.4,17.636.153.034.289.051.424.068.916.135,1.832.254,2.713.322h.068q1.3.1,2.544.1a41.8,41.8,0,0,0,7.409-.7,57.751,57.751,0,0,0,7.359-1.883,44.628,44.628,0,0,0,6.494-2.73,21.546,21.546,0,0,0,4.765-3.255,21.212,21.212,0,0,1,2.747-1.831,5.179,5.179,0,0,1,2.459-.611,5,5,0,0,1,2.645.848,20.329,20.329,0,0,1,3.052,2.442l10.614,11.292a6.352,6.352,0,0,1,1.408,2.222,7.358,7.358,0,0,1,.288,2.017,4.905,4.905,0,0,1-1.1,3.239,12.12,12.12,0,0,1-2.594,2.408,67.26,67.26,0,0,1-19.822,11.9,63.867,63.867,0,0,1-23.315,4.29,71.421,71.421,0,0,1-25.926-4.714,67.924,67.924,0,0,1-21.415-13.039,62.225,62.225,0,0,1-14.616-19.618,56.031,56.031,0,0,1-5.409-24.553,60.619,60.619,0,0,1,8.257-30.588,61.037,61.037,0,0,1,9.615-12.463,60.07,60.07,0,0,1,12.649-9.75,64.651,64.651,0,0,1,32.538-8.563,62.894,62.894,0,0,1,16.109,2.069,65.5,65.5,0,0,1,14.667,5.833,63.735,63.735,0,0,1,12.564,9.037,61.669,61.669,0,0,1,9.8,11.531,53.378,53.378,0,0,1,6.358,13.361A47.883,47.883,0,0,1,743.765,377.221Z" fill="#f26167"/><path d="M601.521,326.114a6.5,6.5,0,0,0-1.848-2.153,9.894,9.894,0,0,0-2.56-1.323,8.988,8.988,0,0,0-2.8-.475H573.578a5.016,5.016,0,0,0-5,5.019V336.9a.984.984,0,0,0,.051.322,70.406,70.406,0,0,0-6.24-6.291,40.781,40.781,0,0,0-7.765-5.425,41.644,41.644,0,0,0-9.36-3.612,45,45,0,0,0-11.31-1.323,64.8,64.8,0,0,0-25.01,4.748,60.85,60.85,0,0,0-19.923,13.09,59.417,59.417,0,0,0-13.107,19.567A61.619,61.619,0,0,0,471.2,382.12a58.843,58.843,0,0,0,4.714,23.806,54.516,54.516,0,0,0,13.107,18.584,60.116,60.116,0,0,0,19.923,12.09,70.525,70.525,0,0,0,25.01,4.324,37.649,37.649,0,0,0,10.716-1.357,35.535,35.535,0,0,0,8.258-3.578,40.126,40.126,0,0,0,6.664-5.036q3-2.823,5.9-5.731v1.255a4.086,4.086,0,0,0,.051.712,4.094,4.094,0,0,1,.051.712v1.272c0,1.628-.068,3.188-.2,4.7a16.26,16.26,0,0,1-.9,4.137,16.586,16.586,0,0,1-4.459,7.342,30.771,30.771,0,0,1-7.512,5.409,38.81,38.81,0,0,1-9.156,3.357,42.347,42.347,0,0,1-9.411,1.119c-1.8,0-3.815-.084-6.053-.237a42.188,42.188,0,0,1-6.8-1.034,40.271,40.271,0,0,1-6.714-2.171,19.633,19.633,0,0,1-5.748-3.611c-2.2-1.509-4.036-2.255-5.511-2.255a4.959,4.959,0,0,0-2.594.7,13.916,13.916,0,0,0-2.611,2.119l-9.513,12.327a8.762,8.762,0,0,0-1.9,4.985,6.063,6.063,0,0,0,1.051,3.443,10.078,10.078,0,0,0,2.561,2.594,49.235,49.235,0,0,0,10.156,6.443,75.94,75.94,0,0,0,11.9,4.561,90.826,90.826,0,0,0,12.36,2.679,82.2,82.2,0,0,0,11.615.9,80.289,80.289,0,0,0,26.028-4.137,60.652,60.652,0,0,0,20.975-12.056A56.4,56.4,0,0,0,597.113,451.1a63.749,63.749,0,0,0,5.1-26.163v-95.8A6.439,6.439,0,0,0,601.521,326.114Zm-33.827,57.7a27.215,27.215,0,0,1-2.866,11.005,29.527,29.527,0,0,1-6.748,8.851,30.918,30.918,0,0,1-9.869,5.884,34.147,34.147,0,0,1-12.056,2.1A30.081,30.081,0,0,1,524.3,409.4a26.816,26.816,0,0,1-15.023-15.565,33.055,33.055,0,0,1-2.052-11.717,32.553,32.553,0,0,1,2.052-11.479A27.812,27.812,0,0,1,524.3,354.685a28.694,28.694,0,0,1,11.852-2.408,32.23,32.23,0,0,1,21.925,8.529,31.136,31.136,0,0,1,6.748,9.021,27.31,27.31,0,0,1,2.866,10.869Z" fill="#f26167"/><path d="M647.791,304.307a9.457,9.457,0,0,1,1.631-.266,5.726,5.726,0,0,1,1.488.062l.085,1.842a7.121,7.121,0,0,0-1.122-.028,5.869,5.869,0,0,0-1.2.176,3.758,3.758,0,0,0-2.254,1.407,3.63,3.63,0,0,0,1.211,4.7,3.763,3.763,0,0,0,2.655.141,5.951,5.951,0,0,0,1.135-.424,7.334,7.334,0,0,0,.967-.568L653.2,313a5.687,5.687,0,0,1-1.273.773,9.215,9.215,0,0,1-1.557.555,7.02,7.02,0,0,1-2.461.232,4.941,4.941,0,0,1-1.979-.606,4.5,4.5,0,0,1-1.445-1.316,6.083,6.083,0,0,1-1.033-4.008,4.5,4.5,0,0,1,.629-1.851,4.954,4.954,0,0,1,1.439-1.486A7.049,7.049,0,0,1,647.791,304.307Z" fill="#647ced"/><path d="M669.31,303.817a2.765,2.765,0,0,1-.351,1.818,3.651,3.651,0,0,1-1.48,1.349l3.944,3.435-3.154.424L664.95,307.8l-.469.062.463,3.435-2.561.344-1.333-9.9,3.309-.446a7.93,7.93,0,0,1,1.822-.048,4.66,4.66,0,0,1,1.514.386,2.891,2.891,0,0,1,1.084.844A2.746,2.746,0,0,1,669.31,303.817Zm-2.462.376a1.074,1.074,0,0,0-.678-.914,3.071,3.071,0,0,0-1.574-.113l-.733.1.374,2.781.624-.085a2.893,2.893,0,0,0,1.557-.6A1.242,1.242,0,0,0,666.848,304.193Z" fill="#647ced"/><path d="M679.864,299.911l6.538-.058.016,1.95-3.954.035.019,2.009,3.764-.032.017,1.949-3.764.034.018,2.129,4-.035.017,1.951-6.584.057Z" fill="#647ced"/><path d="M702.513,309.407l-3.972-.6-.927,1.818-2.632-.4,5.348-9.3,2.8.422,2.378,10.459-2.632-.395Zm-3.028-2.427,2.664.4-.7-4.368Z" fill="#647ced"/><path d="M723.51,306.933l-.651,1.837-2.657-.941-2.686,7.578-2.435-.862,2.685-7.578-2.658-.943.652-1.838Z" fill="#647ced"/><path d="M730.206,321.584l-2.225-1.315,5.085-8.6,2.225,1.315Z" fill="#647ced"/><path d="M741.937,330.729l-2.119-1.977,4.225-9.723,1.981,1.85L742.505,328l6.859-4,1.98,1.848Z" fill="#647ced"/><path d="M751.277,341.931l-1.485-2.113,8.172-5.743,1.486,2.114Z" fill="#647ced"/><path d="M761.858,355.11a2.828,2.828,0,0,1-1.236.28,2.912,2.912,0,0,1-1.248-.288,3.918,3.918,0,0,1-1.152-.85,5.294,5.294,0,0,1-.944-1.417,8.459,8.459,0,0,1-.579-1.644,7.273,7.273,0,0,1-.213-1.677l1.917-.332a7.857,7.857,0,0,0,.132,1.314,5.784,5.784,0,0,0,.471,1.432,2.258,2.258,0,0,0,.675.883.794.794,0,0,0,.867.06.885.885,0,0,0,.459-.626,4.765,4.765,0,0,0,.013-1.5,6.087,6.087,0,0,1,.181-2.578,2.474,2.474,0,0,1,1.344-1.421,2.621,2.621,0,0,1,2.433-.046,4.449,4.449,0,0,1,1.876,2.171,7.693,7.693,0,0,1,.566,1.631,5.723,5.723,0,0,1,.153,1.462l-1.857.391a6.459,6.459,0,0,0-.142-1.265,5.714,5.714,0,0,0-.436-1.285,2.016,2.016,0,0,0-.569-.767.667.667,0,0,0-.73-.047.927.927,0,0,0-.3.211.747.747,0,0,0-.16.328,2.1,2.1,0,0,0-.045.536c0,.219.017.491.04.817.035.472.049.924.045,1.357a4.516,4.516,0,0,1-.166,1.194,2.839,2.839,0,0,1-.487.97A2.43,2.43,0,0,1,761.858,355.11Z" fill="#647ced"/><path d="M773.962,369.1l-1.87.552-.8-2.705-7.712,2.275-.731-2.478,7.712-2.274-.8-2.706,1.871-.551Z" fill="#647ced"/><path d="M260.645,445.264A68.559,68.559,0,0,1,243.4,443.1a66.258,66.258,0,0,1-15.429-6.185,63.453,63.453,0,0,1-13.007-9.633,62.319,62.319,0,0,1-10.046-12.5,60.542,60.542,0,0,1-8.777-31.56,59.459,59.459,0,0,1,5.055-24.427,62.431,62.431,0,0,1,13.769-19.636,64.071,64.071,0,0,1,20.477-13.125,66.971,66.971,0,0,1,25.2-4.754,47.986,47.986,0,0,1,11.5,1.32,46.285,46.285,0,0,1,9.745,3.608,39.073,39.073,0,0,1,8.059,5.494,44.821,44.821,0,0,1,4.524,4.647v-7.014a6.579,6.579,0,0,1,6.477-6.661h19.584a14.5,14.5,0,0,1,2.732.293,6.032,6.032,0,0,1,2.983,1.506,7.065,7.065,0,0,1,2.216,2.676l0,.008a8.166,8.166,0,0,1,.663,3.382V435.248a8.867,8.867,0,0,1-.652,3.392,5.717,5.717,0,0,1-2.263,2.7,5.858,5.858,0,0,1-2.962,1.478,14.451,14.451,0,0,1-2.72.309H301.356a9.819,9.819,0,0,1-3.689-.592,6.218,6.218,0,0,1-2.432-1.722,9.066,9.066,0,0,1-1.472-2.549c-.66-1.632-1.241-3.287-1.775-5.053l-.184-.61a61.766,61.766,0,0,1-4.9,3.918,47.841,47.841,0,0,1-7.567,4.413,48.392,48.392,0,0,1-8.849,3.128A40.475,40.475,0,0,1,260.645,445.264Zm0-121.988a64.981,64.981,0,0,0-24.45,4.608A62.074,62.074,0,0,0,216.353,340.6a60.428,60.428,0,0,0-13.329,19.01,57.466,57.466,0,0,0-4.88,23.609,58.542,58.542,0,0,0,8.484,30.519,60.349,60.349,0,0,0,9.725,12.1,61.4,61.4,0,0,0,12.6,9.329,64.2,64.2,0,0,0,14.959,6,66.536,66.536,0,0,0,16.736,2.1,38.44,38.44,0,0,0,9.354-1.14,46.333,46.333,0,0,0,15.732-7.222,58.005,58.005,0,0,0,5.883-4.836,1,1,0,0,1,1.645.437l.644,2.133c.516,1.708,1.077,3.307,1.716,4.887a7.146,7.146,0,0,0,1.141,2,4.191,4.191,0,0,0,1.666,1.165,8.005,8.005,0,0,0,2.93.443h19.177a12.7,12.7,0,0,0,2.355-.275,3.927,3.927,0,0,0,2.03-1.036.938.938,0,0,1,.158-.122,3.724,3.724,0,0,0,1.551-1.814,6.893,6.893,0,0,0,.5-2.636V330.535a6.228,6.228,0,0,0-.489-2.567A5.043,5.043,0,0,0,325,326.035c-.029-.023-.058-.046-.084-.071a4.055,4.055,0,0,0-2.034-1.038,12.546,12.546,0,0,0-2.351-.256H300.949a4.577,4.577,0,0,0-4.477,4.661v9.686a.975.975,0,0,1-.05.312l-.05.155a1,1,0,0,1-1.757.279,42.2,42.2,0,0,0-6-6.571,37.1,37.1,0,0,0-7.645-5.209,44.232,44.232,0,0,0-9.317-3.447A45.947,45.947,0,0,0,260.645,323.276Zm-.289,90.123a29.462,29.462,0,0,1-11.95-2.373,27.533,27.533,0,0,1-15.133-15.983,34.511,34.511,0,0,1,0-23.512,30.044,30.044,0,0,1,5.893-9.8,27.966,27.966,0,0,1,9.229-6.692,28.674,28.674,0,0,1,11.961-2.464,31.851,31.851,0,0,1,22.56,9.116,31.308,31.308,0,0,1,6.691,9.792,29.972,29.972,0,0,1,0,23.614h0a28.993,28.993,0,0,1-6.708,9.566,32.064,32.064,0,0,1-10.042,6.376A32.77,32.77,0,0,1,260.356,413.4Zm0-58.826a26.671,26.671,0,0,0-11.132,2.285,25.969,25.969,0,0,0-8.575,6.213,28.048,28.048,0,0,0-5.5,9.156,32.516,32.516,0,0,0,0,22.116,25.532,25.532,0,0,0,14.063,14.851,27.477,27.477,0,0,0,11.147,2.2,30.768,30.768,0,0,0,11.744-2.213,30.088,30.088,0,0,0,9.426-5.979,27.018,27.018,0,0,0,6.248-8.914,27.975,27.975,0,0,0,0-22.015,29.322,29.322,0,0,0-6.264-9.168,29.851,29.851,0,0,0-21.153-8.537ZM288.69,394.7h0Z" fill="#3d3d3d"/><path d="M457.742,443.161H434.63c-3.152,0-5.3-.527-6.568-1.614-1.305-1.1-1.943-3.084-1.943-6.066V374.2a15.014,15.014,0,0,0-1.83-7.19,21.82,21.82,0,0,0-4.929-6.11,24.267,24.267,0,0,0-6.971-4.2,21.336,21.336,0,0,0-7.889-1.541,18.67,18.67,0,0,0-6.989,1.438,24.153,24.153,0,0,0-11.718,10.077,16.624,16.624,0,0,0-2.322,7.413l0,61.106a9.664,9.664,0,0,1-.715,3.573,6.161,6.161,0,0,1-2.336,2.912,10.258,10.258,0,0,1-2.764,1.166,12.174,12.174,0,0,1-2.883.317h-22.62c-3.154,0-5.486-.772-6.931-2.3a8.284,8.284,0,0,1-2.191-5.962V329.675a7.494,7.494,0,0,1,1-3.789,6.987,6.987,0,0,1,1.741-2.058,1.017,1.017,0,0,1,.255-.3,7.417,7.417,0,0,1,3.175-1.5,15.5,15.5,0,0,1,2.953-.306h15.108a9.111,9.111,0,0,1,2.457.312,8.62,8.62,0,0,1,8.106,8.623l.24,4.437a29.721,29.721,0,0,1,3.287-3.526,37.645,37.645,0,0,1,8.535-5.787,55.289,55.289,0,0,1,11.669-4.266,60.871,60.871,0,0,1,14.743-1.658,49.556,49.556,0,0,1,20.8,4.211,46.273,46.273,0,0,1,15.545,11.507,50.318,50.318,0,0,1,9.707,17.005,63.9,63.9,0,0,1,3.309,20.688V434.9a8.8,8.8,0,0,1-1.92,6.079C462.455,442.427,460.436,443.161,457.742,443.161Zm-53.242-90a23.335,23.335,0,0,1,8.626,1.682,26.282,26.282,0,0,1,7.543,4.547,23.822,23.822,0,0,1,5.379,6.673,16.994,16.994,0,0,1,2.071,8.14v61.28c0,2.29.428,3.861,1.238,4.542.61.522,2.013,1.138,5.273,1.138h23.112c2.128,0,3.6-.5,4.509-1.513a6.918,6.918,0,0,0,1.409-4.744V373.269a61.893,61.893,0,0,0-3.2-20.041,48.312,48.312,0,0,0-9.318-16.333,44.276,44.276,0,0,0-14.876-11.009,47.574,47.574,0,0,0-19.963-4.028,58.913,58.913,0,0,0-14.254,1.6,53.342,53.342,0,0,0-11.248,4.107,35.689,35.689,0,0,0-8.087,5.475,21.844,21.844,0,0,0-4.657,5.728,1,1,0,0,1-1.888-.466l.008-1.193-.346-6.394a6.637,6.637,0,0,0-6.322-6.685.98.98,0,0,1-.241-.041,6.983,6.983,0,0,0-2-.263H352.156a13.509,13.509,0,0,0-2.574.27,4.977,4.977,0,0,0-1.473.546,1.008,1.008,0,0,1-.382.379,4.944,4.944,0,0,0-1.955,1.956,5.519,5.519,0,0,0-.738,2.8V434.9a6.282,6.282,0,0,0,1.637,4.581c1.058,1.114,2.9,1.676,5.485,1.676h22.62a10.238,10.238,0,0,0,2.408-.259,8.239,8.239,0,0,0,2.188-.925,4.117,4.117,0,0,0,1.533-1.962,7.656,7.656,0,0,0,.569-2.822V374.015a18.651,18.651,0,0,1,2.6-8.364,26.149,26.149,0,0,1,12.7-10.912A20.913,20.913,0,0,1,404.5,353.159Z" fill="#3d3d3d"/><path d="M694.584,445.045a72.8,72.8,0,0,1-26.286-4.781,69.242,69.242,0,0,1-21.727-13.231A63.48,63.48,0,0,1,631.724,407.1a57.26,57.26,0,0,1-5.507-24.983,61.612,61.612,0,0,1,8.4-31.094,62.259,62.259,0,0,1,9.769-12.664,61.314,61.314,0,0,1,12.856-9.909,65.679,65.679,0,0,1,33.039-8.7,64.171,64.171,0,0,1,16.363,2.1,66.922,66.922,0,0,1,14.893,5.923,64.9,64.9,0,0,1,12.763,9.18,62.912,62.912,0,0,1,9.959,11.717,54.618,54.618,0,0,1,6.475,13.608,49.1,49.1,0,0,1,2.3,14.934c0,3.268-.052,5.977-.153,8.052a9.676,9.676,0,0,1-1.748,5.492,8.751,8.751,0,0,1-5.244,2.914,49.16,49.16,0,0,1-9.777.735H680.273a1,1,0,0,1-1-1V376.475a10.813,10.813,0,0,1,10.8-10.8h24.572a54.931,54.931,0,0,0-3.587-5.148,29.058,29.058,0,0,0-5.422-5.275,23.322,23.322,0,0,0-6.919-3.531,30.1,30.1,0,0,0-9.136-1.257,19.028,19.028,0,0,0-7.187,1.385,27.435,27.435,0,0,0-6.616,3.766,27.113,27.113,0,0,0-2.242,1.9c-10.96,9.963-9.873,26.63-8.251,35.68a17.5,17.5,0,0,0,.687,2.739c4.291,12.27,14.771,15.907,20.636,16.983a3.668,3.668,0,0,0,.364.058c1.089.161,1.929.261,2.669.318.906.066,1.736.1,2.534.1a40.446,40.446,0,0,0,7.234-.68,56.765,56.765,0,0,0,7.222-1.848,43.22,43.22,0,0,0,6.341-2.665,20.63,20.63,0,0,0,4.544-3.1c.026-.024.053-.046.08-.068a22.233,22.233,0,0,1,2.883-1.917,5.874,5.874,0,0,1,6.1.271,21.427,21.427,0,0,1,3.209,2.561l10.658,11.336a7.266,7.266,0,0,1,1.635,2.613,8.388,8.388,0,0,1,.332,2.311,5.9,5.9,0,0,1-1.333,3.878,13.141,13.141,0,0,1-2.749,2.559,68.594,68.594,0,0,1-20.075,12.045A65.163,65.163,0,0,1,694.584,445.045Zm-4.307-123.287a63.641,63.641,0,0,0-32.039,8.429,59.272,59.272,0,0,0-12.439,9.587,60.27,60.27,0,0,0-9.46,12.262,59.632,59.632,0,0,0-8.122,30.085,55.3,55.3,0,0,0,5.311,24.12,61.5,61.5,0,0,0,14.384,19.308A67.265,67.265,0,0,0,669.017,438.4a70.811,70.811,0,0,0,25.567,4.647,63.211,63.211,0,0,0,22.954-4.222A66.588,66.588,0,0,0,737.066,427.1a1.012,1.012,0,0,1,.083-.064,11.067,11.067,0,0,0,2.383-2.209,3.921,3.921,0,0,0,.885-2.617,6.341,6.341,0,0,0-.251-1.746,5.32,5.32,0,0,0-1.19-1.825l-10.6-11.275a19.427,19.427,0,0,0-2.853-2.278,3.857,3.857,0,0,0-4.1-.2,20.137,20.137,0,0,0-2.572,1.713,22.748,22.748,0,0,1-4.945,3.377,45.46,45.46,0,0,1-6.64,2.792,58.723,58.723,0,0,1-7.494,1.917,38.573,38.573,0,0,1-10.216.608c-.854-.061-1.739-.166-2.849-.33-.141-.017-.307-.039-.493-.08-6.257-1.147-17.5-5.058-22.128-18.283a19.472,19.472,0,0,1-.768-3.047c-1.694-9.456-2.8-26.9,8.856-37.495a29.075,29.075,0,0,1,2.388-2.021,29.45,29.45,0,0,1,7.09-4.036,21.011,21.011,0,0,1,7.931-1.528,32.108,32.108,0,0,1,9.751,1.354,25.636,25.636,0,0,1,7.5,3.831,31.153,31.153,0,0,1,5.8,5.638,58.029,58.029,0,0,1,4.644,6.888,1,1,0,0,1-.866,1.5H690.074a8.81,8.81,0,0,0-8.8,8.8v15.939h54.836a47.379,47.379,0,0,0,9.35-.689,6.862,6.862,0,0,0,4.088-2.18,7.749,7.749,0,0,0,1.333-4.369c.1-2.043.151-4.72.151-7.955a47.084,47.084,0,0,0-2.208-14.329,52.659,52.659,0,0,0-6.24-13.115,60.9,60.9,0,0,0-9.645-11.346,62.922,62.922,0,0,0-12.368-8.9,64.891,64.891,0,0,0-14.442-5.743A62.156,62.156,0,0,0,690.277,321.758Z" fill="#3d3d3d"/><path d="M544.422,487.671a83.545,83.545,0,0,1-11.758-.909,92.322,92.322,0,0,1-12.5-2.708,77.259,77.259,0,0,1-12.06-4.621,50.417,50.417,0,0,1-10.362-6.576,10.909,10.909,0,0,1-2.744-2.8,7.053,7.053,0,0,1-1.228-4.009,9.755,9.755,0,0,1,2.084-5.564l9.536-12.358a1.1,1.1,0,0,1,.084-.1,14.905,14.905,0,0,1,2.807-2.272c2.33-1.389,5.2-1.127,9.181,1.6a.981.981,0,0,1,.108.085,18.759,18.759,0,0,0,5.458,3.427,39.415,39.415,0,0,0,6.555,2.12A40.955,40.955,0,0,0,536.232,454c2.323.158,4.281.235,5.985.235a41.528,41.528,0,0,0,9.188-1.095,37.929,37.929,0,0,0,8.917-3.269,29.977,29.977,0,0,0,7.272-5.235,18.427,18.427,0,0,0,5.064-10.856c.132-1.469.2-3.019.2-4.607V427.9c0-.137,0-.259-.013-.366-1.471,1.45-2.892,2.818-4.3,4.147a40.962,40.962,0,0,1-6.832,5.163,36.7,36.7,0,0,1-8.489,3.681,38.872,38.872,0,0,1-11,1.4,71.825,71.825,0,0,1-25.362-4.388,61.351,61.351,0,0,1-20.25-12.292,55.762,55.762,0,0,1-13.346-18.919,60.136,60.136,0,0,1-4.8-24.205,62.882,62.882,0,0,1,4.792-24.533A60.669,60.669,0,0,1,496.581,337.7a62.09,62.09,0,0,1,20.244-13.3,66.08,66.08,0,0,1,25.392-4.823,46.133,46.133,0,0,1,11.561,1.354,42.827,42.827,0,0,1,9.583,3.7,41.462,41.462,0,0,1,7.956,5.56c1.6,1.431,3.118,2.9,4.524,4.391v-7.392a6.018,6.018,0,0,1,6-6.019h20.738a10.006,10.006,0,0,1,3.108.525,11,11,0,0,1,2.833,1.46,7.55,7.55,0,0,1,2.142,2.485l.01.02a7.457,7.457,0,0,1,.808,3.479v95.8a65.073,65.073,0,0,1-5.189,26.57,57.647,57.647,0,0,1-14.2,19.719,61.925,61.925,0,0,1-21.316,12.257A81.641,81.641,0,0,1,544.422,487.671ZM506.937,449.4l-9.473,12.275a7.812,7.812,0,0,0-1.69,4.374,5.079,5.079,0,0,0,.881,2.884,8.985,8.985,0,0,0,2.3,2.331,48.708,48.708,0,0,0,10.021,6.364,75.251,75.251,0,0,0,11.746,4.5,90.406,90.406,0,0,0,12.225,2.649,81.5,81.5,0,0,0,11.474.889,79.636,79.636,0,0,0,25.705-4.084,59.947,59.947,0,0,0,20.631-11.856,55.635,55.635,0,0,0,13.707-19.041,63.08,63.08,0,0,0,5.017-25.756v-95.8a5.416,5.416,0,0,0-.578-2.547,5.516,5.516,0,0,0-1.557-1.818,8.836,8.836,0,0,0-2.295-1.184,7.993,7.993,0,0,0-2.471-.42H581.843a4.015,4.015,0,0,0-4,4.019V336.9a1,1,0,0,1-1.7.979,69.561,69.561,0,0,0-6.151-6.2,39.509,39.509,0,0,0-7.576-5.293,40.808,40.808,0,0,0-9.134-3.523,44.176,44.176,0,0,0-11.059-1.29,64.081,64.081,0,0,0-24.628,4.671,60.135,60.135,0,0,0-19.6,12.875A58.727,58.727,0,0,0,485.1,358.361a60.894,60.894,0,0,0-4.636,23.759,58.129,58.129,0,0,0,4.63,23.406,53.8,53.8,0,0,0,12.868,18.249,59.385,59.385,0,0,0,19.6,11.889,69.844,69.844,0,0,0,24.659,4.26,36.9,36.9,0,0,0,10.431-1.315,34.752,34.752,0,0,0,8.026-3.475,38.963,38.963,0,0,0,6.5-4.912c1.906-1.793,3.829-3.66,5.876-5.707a1,1,0,0,1,1.707.707v1.255a3.036,3.036,0,0,0,.035.532,4.928,4.928,0,0,1,.067.892v1.272c0,1.648-.069,3.258-.207,4.786a20.448,20.448,0,0,1-5.656,12.1,31.954,31.954,0,0,1-7.75,5.582,39.959,39.959,0,0,1-9.389,3.443,43.506,43.506,0,0,1-9.638,1.146c-1.75,0-3.753-.079-6.121-.24a43.378,43.378,0,0,1-6.961-1.059,41.475,41.475,0,0,1-6.874-2.222,20.732,20.732,0,0,1-5.98-3.746c-1.991-1.355-3.636-2.042-4.89-2.042a3.949,3.949,0,0,0-2.082.554A12.727,12.727,0,0,0,506.937,449.4Zm37.485-36.746a31.209,31.209,0,0,1-12.243-2.334,27.817,27.817,0,0,1-15.568-16.131,34.211,34.211,0,0,1-2.117-12.072,33.669,33.669,0,0,1,2.115-11.829,28.813,28.813,0,0,1,15.553-16.52,29.8,29.8,0,0,1,12.26-2.494,33.223,33.223,0,0,1,22.606,8.8,32.25,32.25,0,0,1,6.962,9.306,28.433,28.433,0,0,1,2.969,11.261v3.174c0,.017,0,.034,0,.051a28.369,28.369,0,0,1-2.972,11.4,30.667,30.667,0,0,1-6.974,9.145,32.093,32.093,0,0,1-10.183,6.075A35.309,35.309,0,0,1,544.422,412.657Zm0-59.38a27.834,27.834,0,0,0-11.444,2.32,26.813,26.813,0,0,0-14.5,15.4,31.657,31.657,0,0,0-1.988,11.127,32.21,32.21,0,0,0,1.988,11.365,25.8,25.8,0,0,0,14.476,15,29.221,29.221,0,0,0,11.464,2.176,33.315,33.315,0,0,0,11.705-2.039,30.053,30.053,0,0,0,9.55-5.692,28.644,28.644,0,0,0,6.523-8.553,26.39,26.39,0,0,0,2.76-10.583V380.7a26.4,26.4,0,0,0-2.76-10.422,30.247,30.247,0,0,0-6.534-8.734,31.228,31.228,0,0,0-21.244-8.263Zm31.538,30.539h0Z" fill="#3d3d3d"/><path d="M590.479,312.56a19.641,19.641,0,1,1,19.641-19.64A19.662,19.662,0,0,1,590.479,312.56Zm0-37.281A17.641,17.641,0,1,0,608.12,292.92,17.661,17.661,0,0,0,590.479,275.279Z" fill="#3d3d3d"/></g></svg>