<svg xmlns="http://www.w3.org/2000/svg" width="50.66" height="81.292" viewBox="0 0 50.66 81.292"><g transform="translate(-3315.22 -45.075)"><path d="M3365.24,69.187a2.362,2.362,0,0,0-.7-.762,3.875,3.875,0,0,0-.975-.468,3.664,3.664,0,0,0-1.066-.168h-7.9a1.846,1.846,0,0,0-1.905,1.776V73a.329.329,0,0,0,.019.114,25.9,25.9,0,0,0-2.377-2.226,15.611,15.611,0,0,0-2.958-1.92,16.622,16.622,0,0,0-3.565-1.278,18.392,18.392,0,0,0-4.308-.468,26.351,26.351,0,0,0-9.527,1.68,23.389,23.389,0,0,0-7.59,4.632,21,21,0,0,0-4.993,6.923,20.456,20.456,0,0,0-1.8,8.542,19.345,19.345,0,0,0,6.789,15,23.273,23.273,0,0,0,7.59,4.277,28.716,28.716,0,0,0,9.527,1.53,15.4,15.4,0,0,0,4.083-.48,14.073,14.073,0,0,0,3.145-1.266,15.277,15.277,0,0,0,2.539-1.782q1.143-1,2.248-2.027v.444a1.351,1.351,0,0,0,.019.252,1.323,1.323,0,0,1,.02.252v.45c0,.576-.026,1.128-.078,1.662a5.4,5.4,0,0,1-.342,1.463,5.816,5.816,0,0,1-1.7,2.6,11.763,11.763,0,0,1-2.862,1.914,15.509,15.509,0,0,1-3.488,1.187,17.311,17.311,0,0,1-3.585.4c-.685,0-1.454-.03-2.306-.084a17.123,17.123,0,0,1-2.59-.366,16.143,16.143,0,0,1-2.558-.767,7.58,7.58,0,0,1-2.19-1.278,4.182,4.182,0,0,0-2.1-.8,2.005,2.005,0,0,0-.989.246,5.235,5.235,0,0,0-.994.75l-3.624,4.362a2.975,2.975,0,0,0-.724,1.763,2.039,2.039,0,0,0,.4,1.218,3.718,3.718,0,0,0,.975.918,19.053,19.053,0,0,0,3.869,2.28,30.388,30.388,0,0,0,4.535,1.613,36.941,36.941,0,0,0,4.709.948,33.692,33.692,0,0,0,4.425.318,32.719,32.719,0,0,0,9.915-1.464,23.579,23.579,0,0,0,7.99-4.265,20.078,20.078,0,0,0,5.316-6.857,21.17,21.17,0,0,0,1.944-9.257V70.255A2.15,2.15,0,0,0,3365.24,69.187ZM3352.354,89.6a9.106,9.106,0,0,1-1.091,3.893,10.578,10.578,0,0,1-2.572,3.132,11.989,11.989,0,0,1-3.759,2.081,13.909,13.909,0,0,1-4.592.744,12.234,12.234,0,0,1-4.515-.8,10.417,10.417,0,0,1-3.488-2.2,9.585,9.585,0,0,1-2.234-3.311,10.949,10.949,0,0,1-.782-4.146,10.788,10.788,0,0,1,.782-4.062,9.867,9.867,0,0,1,2.234-3.365,10.7,10.7,0,0,1,3.488-2.28,11.653,11.653,0,0,1,4.515-.852,12.93,12.93,0,0,1,4.592.816,12.334,12.334,0,0,1,3.759,2.2,11.122,11.122,0,0,1,2.572,3.191,9.143,9.143,0,0,1,1.091,3.846Z" fill="#3d3d3d" stroke="#3d3d3d" stroke-miterlimit="10" stroke-width="0.75"/><circle cx="8.92" cy="8.92" r="8.92" transform="translate(3347.696 45.075)" fill="#f26167"/></g></svg>