<?xml version="1.0" encoding="utf-8"?>
<!-- Generator: Adobe Illustrator 24.1.2, SVG Export Plug-In . SVG Version: 6.00 Build 0)  -->
<svg version="1.1" id="Capa_1" xmlns="http://www.w3.org/2000/svg" xmlns:xlink="http://www.w3.org/1999/xlink" x="0px" y="0px"
	 viewBox="0 0 30 19.1" style="enable-background:new 0 0 30 19.1;" xml:space="preserve">
<style type="text/css">
	.st0{fill:#FFFFFF;}
</style>
<g>
	<g id="Menu_1_">
		<path class="st0" d="M4.7,5.4h20.5c0.4,0,0.7-0.3,0.7-0.7c0-0.4-0.3-0.7-0.7-0.7H4.7c-0.4,0-0.7,0.3-0.7,0.7S4.4,5.4,4.7,5.4z"/>
		<path class="st0" d="M25.3,8.9H4.7c-0.4,0-0.7,0.3-0.7,0.7c0,0.4,0.3,0.7,0.7,0.7h20.5c0.4,0,0.7-0.3,0.7-0.7
			C25.9,9.2,25.6,8.9,25.3,8.9z"/>
		<path class="st0" d="M25.3,13.6H11.6c-0.4,0-0.7,0.3-0.7,0.7c0,0.4,0.3,0.7,0.7,0.7h13.7c0.4,0,0.7-0.3,0.7-0.7
			C25.9,14,25.6,13.6,25.3,13.6z"/>
	</g>
</g>
</svg>
