<?xml version="1.0" encoding="utf-8"?>
<!-- Generator: Adobe Illustrator 24.1.2, SVG Export Plug-In . SVG Version: 6.00 Build 0)  -->
<svg version="1.1" id="Capa_1" xmlns="http://www.w3.org/2000/svg" xmlns:xlink="http://www.w3.org/1999/xlink" x="0px" y="0px"
	 viewBox="0 0 39 62" style="enable-background:new 0 0 39 62;" xml:space="preserve">
<style type="text/css">
	.st0{fill:none;}
	.st1{fill:none;stroke:#3D3D3D;}
	.st2{fill:#FFFFFF;}
	.st3{fill:none;stroke:#707070;}
</style>
<g transform="translate(-861 -682.786)">
	<g transform="translate(861 682.786)">
		<path class="st0" d="M19.5,0L19.5,0C30.3,0,39,8.7,39,19.5v23C39,53.3,30.3,62,19.5,62l0,0C8.7,62,0,53.3,0,42.5v-23
			C0,8.7,8.7,0,19.5,0z"/>
		<path class="st1" d="M19.5,0.5L19.5,0.5c10.5,0,19,8.5,19,19v23c0,10.5-8.5,19-19,19l0,0c-10.5,0-19-8.5-19-19v-23
			C0.5,9,9,0.5,19.5,0.5z"/>
	</g>
	<g transform="translate(877 710.786)">
		<ellipse class="st2" cx="3.5" cy="3" rx="3.5" ry="3"/>
		<ellipse class="st3" cx="3.5" cy="3" rx="3" ry="2.5"/>
	</g>
</g>
</svg>
