<?xml version="1.0" encoding="utf-8"?>
<!-- Generator: Adobe Illustrator 24.1.2, SVG Export Plug-In . SVG Version: 6.00 Build 0)  -->
<svg version="1.1" id="Capa_1" xmlns="http://www.w3.org/2000/svg" xmlns:xlink="http://www.w3.org/1999/xlink" x="0px" y="0px"
	 viewBox="0 0 950 160" style="enable-background:new 0 0 950 160;" xml:space="preserve">
<style type="text/css">
	.st0{fill:#F4E0D7;}
	.st1{fill:#FFE996;}
</style>
<g id="Capa_2_1_">
	<g id="Capa_1-2">
		<path class="st0" d="M17.7,5.9h16l-2.6,28.7c-0.7,6.6-1.4,13.6-2.3,20.3h0.4c2.5-6.7,5.6-13.8,8-20.3l12-28.7h13v28.7
			C62,41,61.6,48,61.2,54.8h0.4c2.2-6.8,4.7-13.8,6.6-20.3l9.6-28.7h14.9l-24,63.4H48.9l0.8-27.1c0-3.8,0.6-9.9,1.1-14.7h-0.4
			c-1.7,4.7-3.7,9.9-5.6,14.7L34.3,69.3H15L17.7,5.9z"/>
		<path class="st0" d="M102.2,5.9h38.7l-2.5,13.1h-23.2L113,30.1h19.7l-2.6,13.1h-19.7l-2.7,13.1h24l-2.6,13.1H89.5L102.2,5.9z"/>
		<path class="st0" d="M185.6,5.9h18.7l6.1,63.4H194l-1-33.6c-0.2-6-0.4-11.7-0.4-18.1h-0.4c-2.5,6.2-4.7,12.1-7.4,18.1l-15.2,33.6
			h-17.2L185.6,5.9z M172.3,43.1h29.5L199,54.8h-29.5L172.3,43.1z"/>
		<path class="st0" d="M228.9,5.9h20.9c12.7,0,22.4,4.5,22.4,16.8c0,17.6-14.3,24.8-29.3,24.8h-6.8l-4.3,21.9h-15.6L228.9,5.9z
			 M244.3,35.1c8.4,0,12.5-4.1,12.5-10.1c0-4.7-3.3-6.8-9.2-6.8H242l-3.3,17L244.3,35.1z M241.4,43.7l11.1-10.2l13.9,35.7H250
			L241.4,43.7z"/>
		<path class="st0" d="M288.6,5.9h38.6l-2.5,13.1h-23.2l-2.1,11.1h19.7l-2.5,13.1h-19.7l-2.7,13.1h24l-2.6,13.1h-39.6L288.6,5.9z"/>
		<path class="st0" d="M360.4,5.9h15.6l-10.1,50.4h23l-2.5,13.1h-38.6L360.4,5.9z"/>
		<path class="st0" d="M394,43.5c0-23.6,16-38.8,32.8-38.8c14.6,0,24.6,9.8,24.6,26.9c0,23.6-16,38.8-32.8,38.8
			C404,70.5,394,60.7,394,43.5z M435.4,32.6c0-9.2-3.5-14.5-9.4-14.5c-7.2,0-16,9.8-16,24.4c0,9.2,3.5,14.4,9.4,14.4
			C426.6,57,435.4,47.3,435.4,32.6L435.4,32.6z"/>
		<path class="st0" d="M454.1,58.3l11.1-8.8c3.3,4.6,8.4,7.7,13.3,7.7c4.5,0,7.4-2.1,7.4-5.6c0-2.8-2.8-4.1-7.2-6.8l-5.5-3.4
			c-5.9-3.7-9.4-8.3-9.4-16.2c0-11.4,10.5-20.5,23.3-20.5c7.4,0,14.5,3.7,19.7,9.9l-9.8,9.2c-3.2-3.2-6.4-5.6-10.5-5.6
			c-4.5,0-6.7,2.4-6.7,5.5c0,2.6,2.7,3.8,7.8,7l5.9,3.7c6.1,3.7,8.6,7.7,8.6,15.1c0,11.6-9.6,21.1-24.8,21.1
			C469.3,70.5,460.8,67.1,454.1,58.3z"/>
		<path class="st0" d="M521.7,5.9h15.6l-12.7,63.4H509L521.7,5.9z"/>
		<path class="st0" d="M551.9,5.9h15l8.8,30.1l3.1,14.3h0.4c0.6-6.8,1-16.4,2.5-24l4.1-20.3h14.8L588,69.3h-15l-8.8-30.1l-3-14.2
			h-0.4c-0.6,7.2-1.2,16.2-2.7,23.8l-4.1,20.5h-14.8L551.9,5.9z"/>
		<path class="st0" d="M605.8,43.5c0-22.6,15.4-38.8,35.1-38.8c8.4,0,14.6,3.7,18.3,10.3l-10.5,8.2c-2.3-3.5-4.9-5.1-8.6-5.1
			c-10.2,0-18.3,10.7-18.3,24.4c0,9.2,3.5,14.6,12.5,14.6c1.9,0,3.8-0.5,5.5-1.6l2.4-10.5h-9.4l2.3-12.7h23l-6,31.4
			c-6,4.3-13.1,6.7-20.5,6.6C615.8,70.5,605.8,60.7,605.8,43.5z"/>
		<path class="st1" d="M23.4,115H10V108h35v6.9H31.6v39.5h-8.2V115z"/>
		<path class="st1" d="M52.8,108H61v18.7h18.8V108H88v46.4h-8.2v-20.6H61v20.6h-8.2V108z"/>
		<path class="st1" d="M97.4,131.1c0-15,8.4-23.9,20.5-23.9s20.5,8.9,20.5,23.9s-8.4,24.2-20.5,24.2S97.4,146.1,97.4,131.1z
			 M129.9,131.1c0-10.4-4.7-16.7-12-16.7s-12,6.3-12,16.7s4.7,17.1,12,17.1S129.9,141.5,129.9,131.1z"/>
		<path class="st1" d="M147.5,134.1V108h8.2v26.7c0,10.1,3.8,13.4,9.4,13.4s9.6-3.3,9.6-13.4V108h7.9v26.1
			c0,15.3-6.8,21.2-17.5,21.2S147.5,149.4,147.5,134.1z"/>
		<path class="st1" d="M190.3,148.5l4.8-5.6c3.2,3.2,7.5,5.1,12.1,5.3c5.2,0,8.1-2.4,8.1-6c0-3.8-3-5-7.2-6.8l-6.4-2.8
			c-4.6-1.9-9.4-5.5-9.4-12.3c0-7.4,6.5-13.1,15.6-13.1c5.4,0,10.5,2.1,14.3,5.9l-4.2,5.2c-2.7-2.6-6.3-4-10.1-4
			c-4.4,0-7.3,2.1-7.3,5.4c0,3.6,3.5,5,7.4,6.6l6.3,2.6c5.5,2.3,9.4,5.8,9.4,12.5c0,7.5-6.3,13.8-16.7,13.8
			C200.8,155.3,194.8,152.9,190.3,148.5z"/>
		<path class="st1" d="M241.2,108h9.6l15.1,46.4h-8.7l-7.1-24.7c-1.5-4.9-2.8-10.2-4.2-15.3h-0.3c-1.3,5.1-2.6,10.4-4.1,15.3
			l-7.1,24.7h-8.4L241.2,108z M235.1,135.4h21.9v6.5h-21.9V135.4z"/>
		<path class="st1" d="M271.3,108h8.5l14.4,26.1l4.8,9.9h0.3c-0.4-4.8-1-10.7-1-15.9V108h7.9v46.4h-8.5l-14.5-26.2l-4.8-9.9h-0.3
			c0.4,4.9,1,10.5,1,15.7v20.3h-7.8V108z"/>
		<path class="st1" d="M317.9,108h12.4c14.2,0,22.6,7.7,22.6,23s-8.4,23.4-22.2,23.4h-12.8V108z M329.7,147.8
			c9.3,0,14.7-5.3,14.7-16.7s-5.4-16.4-14.7-16.4h-3.6v33.1H329.7z"/>
		<path class="st1" d="M359.1,148.5l4.8-5.6c3.2,3.2,7.5,5.1,12.1,5.3c5.2,0,8.1-2.4,8.1-6c0-3.8-3-5-7.2-6.8l-6.4-2.8
			c-4.6-1.9-9.4-5.5-9.4-12.3c0-7.4,6.5-13.1,15.6-13.1c5.4,0,10.5,2.1,14.3,5.9l-4.2,5.2c-2.7-2.6-6.3-4-10.1-4
			c-4.4,0-7.3,2.1-7.3,5.4c0,3.6,3.5,5,7.4,6.6l6.3,2.6c5.5,2.3,9.4,5.8,9.4,12.5c0,7.5-6.2,13.8-16.7,13.8
			C369.6,155.3,363.5,152.9,359.1,148.5z"/>
		<path class="st1" d="M412.7,131.1c0-15,8.4-23.9,20.5-23.9s20.5,8.9,20.5,23.9s-8.4,24.2-20.5,24.2S412.7,146.1,412.7,131.1z
			 M445.2,131.1c0-10.4-4.7-16.7-12-16.7s-12,6.3-12,16.7s4.7,17.1,12,17.1S445.1,141.5,445.2,131.1L445.2,131.1z"/>
		<path class="st1" d="M463,108h28v6.9h-19.8v13.2h16.9v6.9h-16.9v19.4H463V108z"/>
		<path class="st1" d="M510.9,131.1c0-15,8.4-23.9,20.5-23.9c12.1,0,20.5,8.9,20.5,23.9s-8.4,24.2-20.5,24.2
			S510.9,146.1,510.9,131.1z M543.4,131.1c0-10.4-4.7-16.7-12-16.7s-12,6.3-12,16.7s4.7,17.1,12,17.1S543.4,141.5,543.4,131.1z"/>
		<path class="st1" d="M561,134.1V108h8.2v26.7c0,10.1,3.8,13.4,9.4,13.4s9.6-3.3,9.6-13.4V108h7.9v26.1c0,15.3-6.8,21.2-17.5,21.2
			S561,149.4,561,134.1z"/>
		<path class="st1" d="M607.7,108h15.7c9.7,0,17.1,3.4,17.1,13.8c0,10-7.4,14.5-17.1,14.5h-7.4v18.1h-8.2L607.7,108z M622.5,129.7
			c6.4,0,9.8-2.6,9.8-7.9s-3.5-7.2-9.8-7.2h-6.6v15.1H622.5z M621.8,134.1l6-4.9l14.5,25.3H633L621.8,134.1z"/>
		<path class="st1" d="M663.9,108h8.2v21.1h0.2l16.5-21.1h9.1l-14.3,18.1l16.7,28.3h-9.1l-12.5-21.8l-6.7,8.3v13.6h-8.2L663.9,108z"
			/>
		<path class="st1" d="M702.1,131.1c0-15,8.4-23.9,20.5-23.9s20.5,8.9,20.5,23.9s-8.4,24.2-20.5,24.2S702.1,146.1,702.1,131.1z
			 M734.6,131.1c0-10.4-4.7-16.7-12-16.7s-12,6.3-12,16.7s4.7,17.1,12,17.1S734.6,141.5,734.6,131.1z"/>
		<path class="st1" d="M760.8,108h9.7l15.1,46.4h-8.7l-7.1-24.7c-1.5-4.9-2.8-10.2-4.2-15.3h-0.3c-1.3,5.1-2.6,10.4-4.1,15.3
			l-7.1,24.7h-8.4L760.8,108z M754.6,135.4h21.9v6.5h-21.9V135.4z"/>
		<path class="st1" d="M790.9,108h8.3v39.5h19.3v6.9h-27.5V108z"/>
		<path class="st1" d="M835.5,108h9.7l15.1,46.4h-8.7l-7.1-24.7c-1.5-4.9-2.8-10.2-4.2-15.3H840c-1.3,5.1-2.6,10.4-4.1,15.3
			l-7.1,24.7h-8.4L835.5,108z M829.3,135.4h21.9v6.5h-21.9V135.4z"/>
		<path class="st1" d="M862.8,148.5l4.8-5.6c3.2,3.2,7.5,5.1,12.1,5.3c5.2,0,8.1-2.4,8.1-6c0-3.8-3-5-7.2-6.8l-6.3-2.8
			c-4.6-1.9-9.4-5.5-9.4-12.3c0-7.4,6.5-13.1,15.6-13.1c5.4,0,10.5,2.1,14.3,5.9l-4.2,5.2c-2.7-2.6-6.3-4-10.1-4
			c-4.4,0-7.3,2.1-7.3,5.4c0,3.6,3.5,5,7.4,6.6l6.3,2.6c5.5,2.3,9.4,5.8,9.4,12.5c0,7.5-6.3,13.8-16.7,13.8
			C873.3,155.3,867.3,152.9,862.8,148.5z"/>
		<path class="st1" d="M903.2,149.8c0.1-2.9,2.6-5.2,5.5-5c2.9,0.1,5.2,2.6,5,5.5c-0.1,2.8-2.4,5-5.3,5.1c-2.9,0-5.3-2.4-5.3-5.3
			C903.2,149.9,903.2,149.9,903.2,149.8z"/>
		<path class="st1" d="M922.8,149.8c0.1-2.9,2.6-5.2,5.5-5c2.9,0.1,5.2,2.6,5,5.5c-0.1,2.8-2.4,5-5.3,5.1c-2.9,0-5.3-2.4-5.3-5.3
			C922.8,149.9,922.8,149.9,922.8,149.8z"/>
		<path class="st1" d="M942.3,149.8c0.1-2.9,2.6-5.2,5.5-5c2.9,0.1,5.2,2.6,5,5.5c-0.1,2.8-2.4,5-5.3,5.1c-2.9,0-5.3-2.4-5.3-5.3
			C942.3,149.9,942.3,149.9,942.3,149.8z"/>
	</g>
</g>
</svg>
